<?xml version="1.0" encoding="UTF-8"?>
<!DOCTYPE svg PUBLIC "-//W3C//DTD SVG 1.1//EN" "http://www.w3.org/Graphics/SVG/1.1/DTD/svg11.dtd">
<!-- Creator: CorelDRAW X7 -->
<svg xmlns="http://www.w3.org/2000/svg" xml:space="preserve" width="0.25in" height="0.249992in" version="1.1" style="shape-rendering:geometricPrecision; text-rendering:geometricPrecision; image-rendering:optimizeQuality; fill-rule:evenodd; clip-rule:evenodd"
viewBox="0 0 250 250"
 xmlns:xlink="http://www.w3.org/1999/xlink">
 <defs>
  <style type="text/css">
   <![CDATA[
    .fil1 {fill:none}
    .fil0 {fill:#234FA0}
   ]]>
  </style>
 </defs>
 <g id="Layer_x0020_1">
  <metadata id="CorelCorpID_0Corel-Layer"/>
  <g id="books-stack-of-three_x0020__x0028_1_x0029_.eps">
   <path class="fil0" d="M232 86c-1,-7 -1,-20 6,-25 0,0 0,0 0,0 6,-2 10,-4 7,-8l-85 -26 -138 20c0,0 -16,2 -14,26 0,14 5,20 8,23l-11 4c-3,3 1,6 7,8 0,0 0,0 0,0 7,5 7,18 6,25 -26,7 -16,10 -16,10l5 1c-4,4 -8,10 -7,23 1,25 14,26 14,26l91 30 136 -33c0,0 9,-3 -16,-10 -1,-8 -2,-21 5,-25 1,0 1,0 1,0 6,-2 10,-5 6,-8l-5 -2c3,-2 9,-9 10,-25 1,-11 -2,-17 -5,-21l11 -3c0,0 10,-2 -16,-10zm-114 0l23 -5 78 -16 11 -2c-4,7 -3,16 -3,22 0,1 0,3 1,3l-13 4 -98 24 1 -30zm-98 24l11 2 75 16 6 1 20 4 1 30 -101 -25 -10 -3c1,-1 1,-2 1,-3 0,-6 1,-15 -3,-22zm-5 -38c0,-6 1,-11 4,-13 1,-2 3,-2 4,-2 1,0 1,0 1,0l60 19 29 10 -1 30 -83 -23 -4 -2c0,0 0,0 -1,0 0,0 -8,-1 -9,-19zm90 138l-88 -25c0,0 0,0 0,0 -1,0 -9,-1 -9,-19 0,-7 1,-11 3,-14 2,-1 3,-2 5,-2 0,0 1,0 1,0 0,0 0,0 0,0l89 29 -1 31zm115 -31c0,1 0,2 0,3l-110 28 1 -30 23 -5 4 1 13 -4 60 -13 11 -2c-3,6 -3,16 -2,22zm6 -41c-1,0 -1,0 -1,0l-8 3 -79 22 -1 -30 26 -9 62 -20c0,0 4,-1 6,1 3,3 4,8 4,14 -1,18 -9,19 -9,19z"/>
  </g>
  <rect class="fil1" width="250" height="250"/>
 </g>
</svg>
