<?xml version="1.0" encoding="UTF-8"?>
<!DOCTYPE svg PUBLIC "-//W3C//DTD SVG 1.1//EN" "http://www.w3.org/Graphics/SVG/1.1/DTD/svg11.dtd">
<!-- Creator: CorelDRAW X7 -->
<svg xmlns="http://www.w3.org/2000/svg" xml:space="preserve" width="0.666067in" height="0.633323in" version="1.1" style="shape-rendering:geometricPrecision; text-rendering:geometricPrecision; image-rendering:optimizeQuality; fill-rule:evenodd; clip-rule:evenodd"
viewBox="0 0 55 52"
 xmlns:xlink="http://www.w3.org/1999/xlink">
 <defs>
  <style type="text/css">
   <![CDATA[
    .fil3 {fill:#009BCA}
    .fil2 {fill:#00C37A}
    .fil1 {fill:#5C546A}
    .fil4 {fill:#E6BE94}
    .fil5 {fill:#FF4F19}
    .fil0 {fill:#FFEBB7}
   ]]>
  </style>
 </defs>
 <g id="Layer_x0020_1">
  <metadata id="CorelCorpID_0Corel-Layer"/>
  <g id="books.eps">
   <path class="fil0" d="M52 50l-41 0c-4,0 -8,-3 -8,-7l0 -2c0,-4 4,-8 8,-8l41 0 0 17z"/>
   <polygon class="fil1" points="5,35 10,35 10,49 5,49 "/>
   <path class="fil0" d="M48 30l-46 0 0 -12 46 0c1,0 2,1 2,3l0 7c0,1 -1,2 -2,2z"/>
   <polygon class="fil0" points="8,3 52,3 52,16 8,16 "/>
   <path class="fil2" d="M52 52l-40 0c-6,0 -10,-4 -10,-10 0,-6 4,-11 10,-11l40 0c1,0 2,1 2,2 0,1 -1,2 -2,2l-40 0c-4,0 -7,3 -7,7 0,4 3,7 7,7l40 0c1,0 2,1 2,1 0,1 -1,2 -2,2l0 0z"/>
   <path class="fil3" d="M47 31l-46 0c-1,0 -1,0 -1,-1 0,0 0,0 1,0l46 0c2,0 3,-2 3,-3l0 -5c0,-2 -1,-3 -3,-3l-46 0c-1,0 -1,0 -1,-1 0,0 0,-1 1,-1l46 0c2,0 4,2 4,5l0 5c0,2 -2,4 -4,4l0 0z"/>
   <path class="fil4" d="M52 7l-40 0c0,0 -1,0 -1,-1 0,0 1,-1 1,-1l40 0 0 2 0 0z"/>
   <path class="fil4" d="M52 10l-40 0c0,0 -1,0 -1,0 0,-1 1,-1 1,-1l40 0 0 1 0 0z"/>
   <path class="fil4" d="M52 14l-40 0c0,0 -1,0 -1,-1 0,0 1,-1 1,-1l40 0 0 2 0 0z"/>
   <path class="fil4" d="M2 21l45 0c0,0 1,0 1,1 0,0 -1,1 -1,1l-45 0 0 -2 0 0z"/>
   <path class="fil4" d="M2 24l45 0c0,0 1,1 1,1 0,1 -1,1 -1,1l-45 0 0 -2 0 0z"/>
   <path class="fil4" d="M2 28l45 0c0,0 1,0 1,1 0,0 -1,1 -1,1l-45 0 0 -2 0 0z"/>
   <path class="fil5" d="M53 17l-42 0c-3,0 -5,-2 -5,-5l0 -7c0,-3 2,-5 5,-5l42 0c1,0 2,1 2,2 0,1 -1,1 -2,1l-42 0c-1,0 -1,1 -1,2l0 7c0,1 0,2 1,2l42 0c1,0 2,1 2,2 0,1 -1,1 -2,1l0 0z"/>
   <path class="fil4" d="M12 47c0,0 -1,0 -1,1 0,0 1,1 1,1l40 0 0 -2 -40 0 0 0z"/>
   <path class="fil4" d="M12 44c0,0 -1,0 -1,0 0,1 1,1 1,1l40 0 0 -1 -40 0 0 0z"/>
   <path class="fil4" d="M12 40c0,0 -1,0 -1,1 0,0 1,1 1,1l40 0 0 -2 -40 0 0 0z"/>
   <path class="fil4" d="M12 37c0,0 -1,0 -1,0 0,1 1,1 1,1l40 0 0 -1 -40 0 0 0z"/>
  </g>
 </g>
</svg>
