<?xml version="1.0" encoding="UTF-8"?>
<!DOCTYPE svg PUBLIC "-//W3C//DTD SVG 1.1//EN" "http://www.w3.org/Graphics/SVG/1.1/DTD/svg11.dtd">
<!-- Creator: CorelDRAW X7 -->
<svg xmlns="http://www.w3.org/2000/svg" xml:space="preserve" width="0.25in" height="0.249992in" version="1.1" style="shape-rendering:geometricPrecision; text-rendering:geometricPrecision; image-rendering:optimizeQuality; fill-rule:evenodd; clip-rule:evenodd"
viewBox="0 0 250 250"
 xmlns:xlink="http://www.w3.org/1999/xlink">
 <defs>
  <style type="text/css">
   <![CDATA[
    .fil1 {fill:none}
    .fil0 {fill:#234FA0}
   ]]>
  </style>
 </defs>
 <g id="Layer_x0020_1">
  <metadata id="CorelCorpID_0Corel-Layer"/>
  <g id="living-room-books-group_x0020__x0028_1_x0029_.eps">
   <path class="fil0" d="M0 19l45 0 0 23 -45 0 0 -23zm0 32l45 0 0 153 -45 0 0 -153zm8 124c0,8 7,14 14,14 8,0 14,-6 14,-14 0,-7 -6,-14 -14,-14 -7,0 -14,7 -14,14zm-8 56l45 0 0 -18 -45 0 0 18zm54 -22l0 22 58 0 0 -22c-2,-1 -9,-5 -27,-5 -16,0 -26,3 -31,5zm0 -129c5,2 15,6 31,6 17,0 25,-4 27,-6l0 -16 -58 0 0 16zm0 10l0 110c6,-3 17,-5 31,-5 13,0 22,2 27,4l0 -108c-5,2 -14,4 -27,4 -14,0 -25,-3 -31,-5zm154 -72l-31 7 4 22 31 -7 -4 -22zm37 181l-31 6 -31 -149 31 -7 31 150zm-11 -27c-2,-7 -8,-13 -14,-11 -6,1 -9,8 -8,16 2,7 8,12 14,11 6,-1 9,-8 8,-16zm12 36l-30 6 3 18 31 -7 -4 -17zm-120 -166l45 0 0 -23 -45 0 0 23zm0 189l45 0 0 -18 -45 0 0 18zm0 -50l45 0 0 -108 -45 0 0 108zm0 23l45 0 0 -14 -45 0 0 14zm0 -140l45 0 0 -13 -45 0 0 13z"/>
  </g>
  <rect class="fil1" width="250" height="250"/>
 </g>
</svg>
