<?xml version="1.0" encoding="UTF-8"?>
<!DOCTYPE svg PUBLIC "-//W3C//DTD SVG 1.1//EN" "http://www.w3.org/Graphics/SVG/1.1/DTD/svg11.dtd">
<!-- Creator: CorelDRAW X7 -->
<svg xmlns="http://www.w3.org/2000/svg" xml:space="preserve" width="0.25in" height="0.25in" version="1.1" style="shape-rendering:geometricPrecision; text-rendering:geometricPrecision; image-rendering:optimizeQuality; fill-rule:evenodd; clip-rule:evenodd"
viewBox="0 0 250 250"
 xmlns:xlink="http://www.w3.org/1999/xlink">
 <defs>
  <style type="text/css">
   <![CDATA[
    .fil0 {fill:none}
    .fil1 {fill:#234FA0}
   ]]>
  </style>
 </defs>
 <g id="Layer_x0020_1">
  <metadata id="CorelCorpID_0Corel-Layer"/>
  <rect class="fil0" width="250" height="250"/>
  <g id="catalogue.eps">
   <path class="fil1" d="M242 242l-107 0 8 -9 74 0c9,0 16,-7 16,-16l0 -167 9 0 0 192zm-234 -192l9 0 0 179c0,2 2,4 4,4l86 0 8 9 -107 0 0 -192zm17 -17l71 0c1,6 4,12 8,17l0 4 -8 0 0 9 25 0 0 173 -10 -10c0,-1 -2,-1 -3,-1l-83 0 0 -192zm100 -25c11,0 21,10 21,21 0,6 -3,12 -7,16 -1,0 -1,2 -1,3l0 6 -9 0 0 -11 11 -11 -5 -6 -10 10 -10 -10 -5 6 11 11 0 11 -8 0 0 -6c0,-1 -1,-3 -2,-3 -8,-8 -9,-21 -2,-30 4,-4 10,-7 16,-7zm75 63l-54 0c-2,0 -4,2 -4,4l0 50c0,2 2,4 4,4l54 0 0 9 -25 0 0 8 25 0 0 8 -58 0 0 9 58 0 0 8 -58 0 0 8 58 0 0 9 -58 0 0 8 58 0 0 8c0,2 2,4 4,4l13 0c4,0 8,4 8,9 0,4 -4,8 -8,8l-75 0c-1,0 -2,0 -3,1l-10 10 0 -173 25 0 0 -9 -8 0 0 -4c4,-5 7,-11 8,-17l46 0 0 38zm-50 47l17 -16 13 13c2,2 5,2 6,0l10 -9 4 4 0 11 -50 0 0 -3zm50 -20l-1 -1c-2,-2 -4,-2 -6,0l-10 10 -13 -14c-2,-2 -5,-2 -6,0l-14 14 0 -28 50 0 0 19zm8 -90l9 0c4,0 8,4 8,9l0 185c-3,-1 -5,-2 -8,-2l-9 0 0 -192zm38 34l-13 0 0 -25c0,-10 -7,-17 -16,-17l-13 0c-2,0 -4,2 -4,4l0 21 -46 0c-2,-16 -17,-27 -33,-25 -13,2 -23,12 -25,25l-75 0c-2,0 -4,2 -4,4l0 13 -13 0c-2,0 -4,2 -4,4l0 200c0,2 2,4 4,4l242 0c2,0 4,-2 4,-4l0 -200c0,-2 -2,-4 -4,-4z"/>
   <path class="fil1" d="M100 79l0 23 -5 -5c-2,-2 -5,-2 -6,0l-10 10 -14 -14c-1,-2 -4,-2 -5,0l-14 14 0 -28 54 0zm-54 42l0 -3 17 -16 13 13c2,2 4,2 6,0l10 -9 8 8 0 7 -54 0zm-4 8l62 0c2,0 4,-2 4,-4l0 -50c0,-2 -2,-4 -4,-4l-62 0c-3,0 -4,2 -4,4l0 50c0,2 1,4 4,4z"/>
   <polygon class="fil1" points="75,88 83,88 83,96 75,96 "/>
   <polygon class="fil1" points="54,138 63,138 63,146 54,146 "/>
   <polygon class="fil1" points="71,138 108,138 108,146 71,146 "/>
   <polygon class="fil1" points="38,154 108,154 108,163 38,163 "/>
   <polygon class="fil1" points="38,171 108,171 108,179 38,179 "/>
   <polygon class="fil1" points="38,188 108,188 108,196 38,196 "/>
   <polygon class="fil1" points="38,204 92,204 92,213 38,213 "/>
   <polygon class="fil1" points="179,88 188,88 188,96 179,96 "/>
   <polygon class="fil1" points="158,138 167,138 167,146 158,146 "/>
   <polygon class="fil1" points="142,204 192,204 192,213 142,213 "/>
  </g>
 </g>
</svg>
