<?xml version="1.0" encoding="UTF-8"?>
<!DOCTYPE svg PUBLIC "-//W3C//DTD SVG 1.1//EN" "http://www.w3.org/Graphics/SVG/1.1/DTD/svg11.dtd">
<!-- Creator: CorelDRAW X7 -->
<svg xmlns="http://www.w3.org/2000/svg" xml:space="preserve" width="0.29724in" height="0.500004in" version="1.1" style="shape-rendering:geometricPrecision; text-rendering:geometricPrecision; image-rendering:optimizeQuality; fill-rule:evenodd; clip-rule:evenodd"
viewBox="0 0 273 459"
 xmlns:xlink="http://www.w3.org/1999/xlink">
 <defs>
  <style type="text/css">
   <![CDATA[
    .fil0 {fill:white;fill-rule:nonzero}
   ]]>
  </style>
 </defs>
 <g id="Layer_x0020_1">
  <metadata id="CorelCorpID_0Corel-Layer"/>
  <path class="fil0" d="M273 305c0,25 -11,48 -30,65 -19,19 -46,30 -84,34l0 55 -40 0 0 -55c-24,0 -47,-4 -68,-12 -21,-7 -38,-17 -51,-28l21 -49c13,11 28,17 45,26 17,6 36,10 53,10l0 -97c-24,-4 -43,-11 -58,-17 -14,-8 -27,-17 -38,-30 -10,-12 -17,-29 -17,-50 0,-28 11,-49 30,-68 19,-19 47,-30 83,-34l0 -55 40 0 0 55c19,0 36,4 55,8 17,5 32,13 44,22l-19 48c-25,-14 -51,-23 -80,-25l0 97c23,7 44,13 59,19 15,7 28,15 38,28 11,15 17,32 17,53l0 0zm-203 -153c0,11 4,19 13,26 8,8 21,12 36,17l0 -87c-15,2 -28,8 -36,17 -9,6 -13,17 -13,27zm89 199c17,-2 29,-8 38,-14 8,-9 13,-17 13,-28 0,-13 -5,-21 -13,-27 -9,-7 -21,-13 -38,-17l0 86z"/>
 </g>
</svg>
