<?xml version="1.0" encoding="UTF-8"?>
<!DOCTYPE svg PUBLIC "-//W3C//DTD SVG 1.1//EN" "http://www.w3.org/Graphics/SVG/1.1/DTD/svg11.dtd">
<!-- Creator: CorelDRAW X7 -->
<svg xmlns="http://www.w3.org/2000/svg" xml:space="preserve" width="0.430941in" height="0.5in" version="1.1" style="shape-rendering:geometricPrecision; text-rendering:geometricPrecision; image-rendering:optimizeQuality; fill-rule:evenodd; clip-rule:evenodd"
viewBox="0 0 30 34"
 xmlns:xlink="http://www.w3.org/1999/xlink">
 <defs>
  <style type="text/css">
   <![CDATA[
    .fil0 {fill:white}
   ]]>
  </style>
 </defs>
 <g id="Layer_x0020_1">
  <metadata id="CorelCorpID_0Corel-Layer"/>
  <g id="_750494976">
   <g id="_850160464">
    <g>
     <path class="fil0" d="M30 32c-1,-7 -6,-9 -6,-9 -2,-1 -4,-2 -6,-3 3,-2 3,-5 3,-6 1,-2 0,-5 0,-5 0,-6 -6,-6 -6,-6 0,0 0,0 0,0 0,0 0,0 0,0 -1,0 -6,0 -7,6 0,0 0,3 0,5 0,0 0,1 1,1 1,1 2,2 4,3 0,-1 0,-1 0,-1l3 0c0,0 1,1 1,1 0,1 -1,1 -1,1l-3 0c0,0 -1,0 -1,-1 -1,0 -2,0 -3,-1 1,1 1,2 2,3 -2,1 -4,2 -5,3 0,0 -6,2 -6,9 0,0 0,1 2,1 0,0 6,1 13,1 7,0 13,-1 13,-1 2,0 2,-1 2,-1l0 0z"/>
     <path class="fil0" d="M6 16l1 0 0 -7c0,0 0,0 0,0l0 -1c0,-2 0,-3 2,-4 2,-3 6,-3 6,-3 0,0 4,0 6,3 1,1 2,2 2,4l0 1c0,0 0,0 0,0l0 7 0 0c2,0 3,-1 3,-3l0 -2c0,-1 -1,-2 -2,-3l0 0c0,-2 -1,-4 -2,-5 -3,-3 -7,-3 -7,-3 0,0 -5,0 -7,3 -2,1 -3,3 -3,5l0 0c-1,1 -1,2 -1,3l0 2c0,2 1,3 2,3z"/>
    </g>
   </g>
   <g id="_850160680">
   </g>
   <g id="_850141264">
   </g>
   <g id="_850162192">
   </g>
   <g id="_850154176">
   </g>
   <g id="_850144240">
   </g>
   <g id="_850135000">
   </g>
   <g id="_850156744">
   </g>
   <g id="_850140616">
   </g>
   <g id="_850141528">
   </g>
   <g id="_850139824">
   </g>
   <g id="_850147768">
   </g>
   <g id="_850139968">
   </g>
   <g id="_850148608">
   </g>
   <g id="_850148080">
   </g>
   <g id="_850139296">
   </g>
  </g>
 </g>
</svg>
