<?xml version="1.0" encoding="UTF-8"?>
<!DOCTYPE svg PUBLIC "-//W3C//DTD SVG 1.1//EN" "http://www.w3.org/Graphics/SVG/1.1/DTD/svg11.dtd">
<!-- Creator: CorelDRAW X7 -->
<svg xmlns="http://www.w3.org/2000/svg" xml:space="preserve" width="0.249992in" height="0.25in" version="1.1" style="shape-rendering:geometricPrecision; text-rendering:geometricPrecision; image-rendering:optimizeQuality; fill-rule:evenodd; clip-rule:evenodd"
viewBox="0 0 250 250"
 xmlns:xlink="http://www.w3.org/1999/xlink">
 <defs>
  <style type="text/css">
   <![CDATA[
    .fil1 {fill:none}
    .fil0 {fill:#234FA0}
   ]]>
  </style>
 </defs>
 <g id="Layer_x0020_1">
  <metadata id="CorelCorpID_0Corel-Layer"/>
  <g id="ebook.eps">
   <path class="fil0" d="M157 18l-116 0 0 151 116 0 0 -151zm-98 13l18 0 0 9 -18 0 0 -9zm0 36l54 0 0 9 -54 0 0 -9zm0 35l36 0 0 9 -36 0 0 -9zm0 18l54 0 0 9 -54 0 0 -9zm45 -9l0 -9 18 0 0 9 -18 0zm35 36l-80 0 0 -9 80 0 0 9zm0 -18l-17 0 0 -9 17 0 0 9zm0 -18l-9 0 0 -9 9 0 0 9zm0 -17l-80 0 0 -9 80 0 0 9zm0 -18l-17 0 0 -9 17 0 0 9zm0 -18l-80 0 0 -9 80 0 0 9zm0 -18l-53 0 0 -9 53 0 0 9z"/>
   <path class="fil0" d="M148 237c1,0 1,1 2,1l6 12 70 -39 -6 -12c0,0 -1,-1 -1,-2l0 -44 -27 -50c-1,-2 -3,-4 -5,-4 -3,-1 -5,-1 -7,0 -2,2 -4,4 -4,6 -1,2 -1,5 0,7l13 23c2,2 1,5 -1,6 -11,6 -15,20 -9,30l9 14 -4 2 0 13c0,8 -6,14 -14,14l-59 0 2 3 35 20z"/>
   <path class="fil0" d="M28 205l142 0c3,0 5,-2 5,-5l0 -18 -4 -6c-6,-12 -5,-26 4,-36l0 -13 -6 -11c-5,-8 -2,-19 6,-24l0 -88c0,-2 -2,-4 -5,-4l-142 0c-2,0 -4,2 -4,4l0 196c0,3 2,5 4,5zm85 -9l-27 0 0 -9 27 0 0 9zm-81 -183c0,-2 2,-4 5,-4l125 0c2,0 4,2 4,4l0 161c0,2 -2,4 -4,4l-125 0c-3,0 -5,-2 -5,-4l0 -161z"/>
  </g>
  <rect class="fil1" width="250" height="250"/>
 </g>
</svg>
