<?xml version="1.0" encoding="UTF-8"?>
<!DOCTYPE svg PUBLIC "-//W3C//DTD SVG 1.1//EN" "http://www.w3.org/Graphics/SVG/1.1/DTD/svg11.dtd">
<!-- Creator: CorelDRAW X7 -->
<svg xmlns="http://www.w3.org/2000/svg" xml:space="preserve" width="0.407835in" height="0.5in" version="1.1" style="shape-rendering:geometricPrecision; text-rendering:geometricPrecision; image-rendering:optimizeQuality; fill-rule:evenodd; clip-rule:evenodd"
viewBox="0 0 26 32"
 xmlns:xlink="http://www.w3.org/1999/xlink">
 <defs>
  <style type="text/css">
   <![CDATA[
    .fil0 {fill:white}
   ]]>
  </style>
 </defs>
 <g id="Layer_x0020_1">
  <metadata id="CorelCorpID_0Corel-Layer"/>
  <g id="_753140528">
   <g id="_850146304">
    <path class="fil0" d="M13 2l0 0c-1,0 -1,0 -1,0l0 0c0,-1 -1,-2 -2,-2l0 0c0,0 -1,1 -1,2l0 0c0,0 -1,0 -1,0l-1 0c0,0 -1,1 -1,2l0 0c0,0 1,1 1,1l6 0c1,0 2,-1 2,-1l0 0c0,-1 -1,-2 -2,-2zm-3 0c0,0 0,0 0,0 0,-1 0,-1 0,-1 1,0 1,0 1,1 0,0 0,0 -1,0zm3 27l-11 0c-1,0 -2,-1 -2,-2l0 -22c0,-1 1,-2 1,-2l4 0c0,0 0,1 0,1 0,1 1,2 2,2l6 0c2,0 3,-1 3,-2 0,0 0,-1 0,-1l2 0c2,0 3,1 3,2l0 14c0,0 -1,0 -1,0 0,0 -1,0 -2,0l0 -11 -16 0 0 19 11 0c0,1 0,1 0,2l0 0zm7 -9c-3,0 -6,3 -6,6 0,4 3,6 6,6 4,0 6,-2 6,-6 0,-3 -2,-6 -6,-6zm4 5l-3 4c-1,0 -1,0 -1,0 0,0 -1,0 -1,0l-2 -1c0,-1 0,-1 0,-2 0,0 1,0 1,0l2 1 3 -3c0,0 1,-1 1,0 1,0 1,1 0,1zm-8 -9l-7 0c-1,0 -1,0 -1,0l0 -1c0,0 0,0 1,0l7 0c0,0 1,0 1,0l0 1c0,0 -1,0 -1,0zm0 -4l-7 0c-1,0 -1,0 -1,0l0 -1c0,0 0,0 1,0l7 0c0,0 1,0 1,0l0 1c0,0 -1,0 -1,0zm-2 8l-5 0c-1,0 -1,0 -1,-1l0 0c0,0 0,-1 1,-1l5 0c0,0 0,1 0,1l0 0c0,1 0,1 0,1zm-1 4l-4 0c-1,0 -1,0 -1,0l0 -1c0,0 0,0 1,0l4 0c0,0 0,0 0,0l0 1c0,0 0,0 0,0zm-6 -14l-1 2c0,0 0,0 -1,0 0,0 0,0 0,0l-1 -1c0,0 0,0 0,0 0,0 0,0 1,0l0 0 2 -1c0,0 0,0 0,0 1,0 1,0 0,0l0 0zm0 4l-1 2c0,0 0,1 -1,1 0,0 0,-1 0,-1l-1 -1c0,0 0,0 0,0 0,0 0,0 1,0l0 0 2 -1c0,0 0,0 0,0 1,0 1,0 0,0l0 0zm0 4l-1 2c0,0 0,0 -1,0 0,0 0,0 0,0l-1 -1c0,0 0,0 0,0 0,0 0,0 1,0l0 0 2 -1c0,0 0,0 0,0 1,0 1,0 0,0l0 0zm0 4l-1 2c0,0 0,0 -1,0 0,0 0,0 0,0l-1 -1c0,0 0,0 0,0 0,0 0,0 1,0l0 0 2 -1c0,0 0,0 0,0 1,0 1,0 0,0l0 0z"/>
   </g>
   <g id="_850148848">
   </g>
   <g id="_850139296">
   </g>
   <g id="_850146520">
   </g>
   <g id="_850147000">
   </g>
   <g id="_850145752">
   </g>
   <g id="_850141912">
   </g>
   <g id="_850131976">
   </g>
   <g id="_850136008">
   </g>
   <g id="_850140688">
   </g>
   <g id="_850160824">
   </g>
   <g id="_850145776">
   </g>
   <g id="_850158736">
   </g>
   <g id="_850132768">
   </g>
   <g id="_850139056">
   </g>
   <g id="_850153096">
   </g>
  </g>
 </g>
</svg>
