<?xml version="1.0" encoding="UTF-8"?>
<!DOCTYPE svg PUBLIC "-//W3C//DTD SVG 1.1//EN" "http://www.w3.org/Graphics/SVG/1.1/DTD/svg11.dtd">
<!-- Creator: CorelDRAW X7 -->
<svg xmlns="http://www.w3.org/2000/svg" xml:space="preserve" width="0.467748in" height="0.500004in" version="1.1" style="shape-rendering:geometricPrecision; text-rendering:geometricPrecision; image-rendering:optimizeQuality; fill-rule:evenodd; clip-rule:evenodd"
viewBox="0 0 32 34"
 xmlns:xlink="http://www.w3.org/1999/xlink">
 <defs>
  <style type="text/css">
   <![CDATA[
    .fil0 {fill:white}
   ]]>
  </style>
 </defs>
 <g id="Layer_x0020_1">
  <metadata id="CorelCorpID_0Corel-Layer"/>
  <path id="supplier.svg" class="fil0" d="M0 3l1 0 0 28 -1 0 0 3 32 0 0 -3 -1 0 0 -28 1 0 0 -3 -32 0 0 3zm2 0l1 0 0 28 -1 0 0 -28zm22 28l0 -5 1 0 0 5 -1 0zm-3 0l0 -5 2 0 0 5 -2 0zm-2 0l0 -5 1 0 0 5 -1 0zm-2 0l0 -5 1 0 0 5 -1 0zm-2 0l0 -5 1 0 0 5 -1 0zm11 -5l1 0 0 5 -1 0 0 -5zm1 -1l-13 0c0,0 0,0 0,1l0 5 -1 0 0 -1c1,0 1,-1 0,-1l-4 -4c0,0 0,0 0,0l-2 1 -1 -1c0,0 -1,0 -1,0l0 1 0 -2 22 0 0 1 0 0zm-22 -19l1 0 0 4 -1 0 0 -4zm2 0l1 0 0 4 -1 0 0 -4zm2 0l1 0 0 4 -1 0 0 -4zm2 0l2 0 0 4 -2 0 0 -4zm3 3l3 -3 1 1 -3 3 -1 -1zm4 -1l0 2 -2 0 2 -2zm3 -2l2 0 0 4 -2 0 0 -4zm3 0l1 0 0 4 -1 0 0 -4zm-19 5l22 0 0 2 -22 0 0 -2zm15 -1l-1 0 0 -4 1 0 0 4zm-15 6l1 0 0 4 -1 0 0 -4zm2 0l1 0 0 4 -1 0 0 -4zm10 0l1 0 0 4 -1 0 0 -4zm2 0l1 0 0 4 -1 0 0 -4zm2 0l2 0 0 4 -2 0 0 -4zm3 0l1 0 0 4 -1 0 0 -4zm-19 5l22 0 0 2 -22 0 0 -2zm11 -1l-1 0 0 -4 1 0 0 4zm-3 0l-4 -3 1 -1 3 3 0 1zm-2 0l-2 0 0 -2 2 2zm-6 9l2 2 -2 0 0 -2zm2 -1l2 1 -1 1 -3 -3 1 -1 1 2zm3 1l-2 -2 1 -1 3 3 -1 1 -1 -1zm0 1l0 1 -1 0 1 -1zm16 -10l0 -4 1 0 0 4 -1 0zm1 -5l-13 0c0,0 0,0 0,0l0 3 -3 -3c-1,0 -1,0 -1,0l-1 1 0 -1c0,0 0,0 -1,0l-3 0 0 -1 22 0 0 1 0 0zm-1 -5l0 -4 1 0 0 4 -1 0zm1 -5l-8 0c-1,0 -1,0 -1,0l0 0 -1 0c0,0 0,0 0,0l-3 3 0 -3c0,0 -1,0 -1,0l-8 0 0 -2 22 0 0 2 0 0zm4 28l-30 0 0 -1 30 0 0 1zm-2 -2l-1 0 0 -28 1 0 0 28zm-28 -30l30 0 0 1 -30 0 0 -1zm0 0z"/>
 </g>
</svg>
