<?xml version="1.0" encoding="UTF-8"?>
<!DOCTYPE svg PUBLIC "-//W3C//DTD SVG 1.1//EN" "http://www.w3.org/Graphics/SVG/1.1/DTD/svg11.dtd">
<!-- Creator: CorelDRAW X7 -->
<svg xmlns="http://www.w3.org/2000/svg" xml:space="preserve" width="0.567516in" height="0.633in" version="1.1" style="shape-rendering:geometricPrecision; text-rendering:geometricPrecision; image-rendering:optimizeQuality; fill-rule:evenodd; clip-rule:evenodd"
viewBox="0 0 64 71"
 xmlns:xlink="http://www.w3.org/1999/xlink">
 <defs>
  <style type="text/css">
   <![CDATA[
    .fil2 {fill:#231F20}
    .fil1 {fill:#FF5023}
    .fil0 {fill:#FFAF46}
    .fil3 {fill:#231F20;fill-rule:nonzero}
   ]]>
  </style>
 </defs>
 <g id="Layer_x0020_1">
  <metadata id="CorelCorpID_0Corel-Layer"/>
  <g id="_753596536">
   <path class="fil0" d="M48 46c0,-1 1,-1 1,-2 3,-3 4,-8 4,-12 0,-12 -9,-21 -21,-21 -12,0 -21,9 -21,21 0,4 1,8 3,11 1,1 1,2 2,3 3,3 6,5 9,6 1,0 2,1 3,1 3,0 5,0 7,0 1,0 2,-1 2,-1 4,-1 8,-3 11,-6l0 0zm-16 1c-9,0 -15,-7 -15,-15 0,-9 6,-16 15,-16 8,0 15,7 15,16 0,8 -7,15 -15,15l0 0z"/>
   <g id="_653464320">
    <path class="fil1" d="M37 52c0,0 -1,1 -2,1l10 17 3 -9 9 2 -9 -17c-3,3 -7,5 -11,6z"/>
    <path class="fil1" d="M16 46l-10 17 9 -2 4 9 9 -17c-1,0 -2,-1 -3,-1 -3,-1 -6,-3 -9,-6z"/>
   </g>
   <g id="_653459280">
    <path class="fil0" d="M47 32c0,-9 -7,-16 -15,-16 -9,0 -15,7 -15,16 0,8 6,15 15,15 8,0 15,-7 15,-15zm-9 -3c0,2 -1,3 -3,3 2,0 3,1 3,2l0 2c0,1 0,1 0,1 0,0 0,0 0,0 0,0 0,0 0,0 0,0 0,0 0,0 0,0 -1,1 -1,1 0,0 0,0 0,0 0,0 0,0 0,0 0,0 0,0 0,0 0,0 0,0 0,0 -1,1 -1,1 -1,1 0,0 0,0 0,0 0,0 0,0 -1,0l-2 0 0 0 -4 0 0 3 0 -3 -1 0 0 -14 1 0 0 -4 0 4 4 0 0 0 2 0c2,0 3,1 3,2l0 2 0 0z"/>
    <path class="fil0" d="M36 24l-8 0 0 8 8 0c1,0 2,-1 2,-2l0 -3c0,-2 -1,-3 -2,-3z"/>
    <path class="fil0" d="M38 37c0,0 0,0 0,0 0,0 0,0 0,0z"/>
    <path class="fil0" d="M37 38c0,0 0,0 0,0 0,0 0,0 0,0z"/>
    <path class="fil0" d="M38 36c0,1 0,1 0,1 0,0 0,0 0,-1z"/>
    <path class="fil0" d="M37 38c-1,1 -1,1 -1,1 0,0 0,0 1,-1z"/>
    <path class="fil0" d="M36 39c0,0 0,0 -1,0 1,0 1,0 1,0z"/>
    <path class="fil0" d="M37 38c0,0 0,0 0,0 0,0 0,0 0,0z"/>
    <path class="fil0" d="M38 37c0,0 0,0 0,0 0,0 -1,1 -1,1 0,0 1,-1 1,-1z"/>
    <path class="fil0" d="M36 39c0,0 0,0 0,0 0,0 0,0 0,0z"/>
    <path class="fil0" d="M37 38c0,0 0,0 0,0 0,0 0,0 0,0z"/>
    <path class="fil0" d="M37 38c0,0 0,0 0,0 0,0 0,0 0,0z"/>
    <path class="fil0" d="M38 37c0,0 0,0 0,0 0,0 0,0 0,0z"/>
    <path class="fil0" d="M27 40l0 0 9 0c0,0 0,0 1,0 0,0 0,0 0,0 0,-1 0,-1 0,-1 0,0 1,0 1,0 0,0 0,0 0,0 0,0 0,0 0,0 0,-1 0,-1 1,-1 0,0 0,0 0,0 0,0 0,0 0,0 0,0 0,-1 0,-1 0,0 0,0 0,0l0 -3c0,-2 -1,-3 -3,-3l-9 0 0 9 0 0z"/>
    <polygon class="fil0" points="28,39 29,39 28,39 "/>
   </g>
   <g id="_653453952">
    <path class="fil1" d="M32 7c-1,0 -1,0 -1,-1l0 -5c0,-1 0,-1 1,-1 0,0 1,0 1,1l0 5c0,1 -1,1 -1,1z"/>
    <path class="fil1" d="M19 11c-1,0 -1,-1 -1,-1l-2 -4c-1,-1 -1,-1 0,-2 1,0 1,0 2,1l2 4c0,0 0,1 0,1 -1,0 -1,1 -1,1l0 0z"/>
    <path class="fil1" d="M9 20c0,0 0,0 0,0l-4 -2c-1,-1 -1,-2 -1,-2 1,-1 1,-1 2,-1l4 3c1,0 1,1 0,1 0,1 0,1 -1,1l0 0z"/>
    <path class="fil1" d="M6 33l-5 0c0,0 -1,-1 -1,-1 0,-1 1,-1 1,-1l5 0c1,0 1,0 1,1 0,0 0,1 -1,1z"/>
    <path class="fil1" d="M5 48c0,0 -1,0 -1,-1 0,0 0,-1 1,-1l4 -2c0,-1 1,0 1,0 1,1 1,1 0,2 0,0 0,0 0,0l-4 2c0,0 0,0 -1,0l0 0z"/>
    <path class="fil1" d="M58 48c0,0 0,0 0,0l-4 -2c-1,-1 -1,-1 -1,-2 1,0 1,-1 2,0 0,0 0,0 0,0l4 2c1,0 1,1 0,2 0,0 0,0 -1,0l0 0z"/>
    <path class="fil1" d="M63 33l-5 0c-1,0 -1,-1 -1,-1 0,-1 0,-1 1,-1l5 0c0,0 1,0 1,1 0,0 -1,1 -1,1z"/>
    <path class="fil1" d="M54 20c0,0 -1,0 -1,-1 0,-1 0,-1 1,-1l4 -3c0,0 1,0 1,1 1,0 1,1 0,2l-4 2c0,0 0,0 -1,0l0 0z"/>
    <path class="fil1" d="M45 11c-1,0 -1,-1 -1,-2 0,0 0,0 0,0l2 -4c0,-1 1,-1 2,-1 0,1 1,1 0,2l-2 4c0,0 -1,1 -1,1l0 0z"/>
   </g>
   <path class="fil2" d="M58 62l-9 -16c0,0 1,-1 1,-1 3,-4 4,-9 4,-13 0,-13 -10,-23 -22,-23 -12,0 -23,10 -23,23 0,4 2,8 4,12 1,1 1,1 2,2l-10 16c0,1 0,1 1,2 0,0 0,0 0,0l9 -1 2 7c1,1 1,1 1,1 1,0 1,0 1,0 0,0 0,0 1,-1l9 -16c2,0 4,0 6,0l9 16c0,1 1,1 1,1 0,0 0,0 0,0 1,0 1,0 1,-1l3 -7 8 1c1,0 2,0 2,-1 0,0 0,-1 -1,-1l0 0 0 0zm-39 5l-3 -6c0,-1 0,-1 -1,-1 0,0 0,0 0,0l-6 1 7 -13c1,0 1,0 1,1 0,0 0,0 1,0 0,0 0,0 0,1 1,0 1,0 1,0 0,0 0,0 1,0 0,1 0,1 0,1 0,0 1,0 1,0 0,0 0,0 0,1 1,0 1,0 1,0 0,0 0,0 0,0 1,0 1,0 1,1 0,0 1,0 1,0 0,0 1,0 1,0l0 0c1,0 1,0 2,1l-8 13 0 0zm10 -15c-1,-1 -2,-1 -3,-1 -3,-1 -6,-3 -8,-5 0,0 -1,-1 -1,-1l0 0 0 0c-1,-1 -1,-1 -2,-2 -2,-4 -3,-7 -3,-11 0,-11 9,-20 20,-20 11,0 20,9 20,20 0,4 -1,8 -4,11 0,1 -1,2 -1,2 -3,3 -6,5 -10,6 -1,0 -1,0 -2,1 -2,0 -4,0 -6,0l0 0 0 0zm20 8c-1,0 -2,0 -2,1l-2 6 -8 -13c0,0 0,-1 1,-1 0,0 1,0 1,0 0,0 0,0 1,0 0,0 0,0 1,-1 0,0 0,0 0,0 0,0 1,0 1,0 0,0 0,0 0,0 1,-1 1,-1 1,-1 0,0 1,0 1,0 0,0 0,-1 1,-1 0,0 0,0 0,0 0,0 1,-1 1,-1 0,0 0,0 0,0 1,0 1,-1 1,-1 0,0 0,0 0,0l0 0 8 13 -6 -1 0 0z"/>
   <path class="fil2" d="M32 48c-9,0 -17,-7 -17,-16 0,-9 8,-17 17,-17 9,0 16,8 16,17 0,9 -7,16 -16,16zm0 -30c-8,0 -14,6 -14,14 0,8 6,14 14,14 8,0 14,-6 14,-14 0,-8 -6,-14 -14,-14z"/>
   <path class="fil3" d="M31 37l0 -5c-1,0 -2,-1 -3,-1 -1,-1 -1,-2 -1,-3 0,-2 0,-3 1,-3 1,-1 2,-2 3,-2l0 -1 2 0 0 1c1,0 2,1 2,1 1,1 1,2 2,3l-3 0c0,-1 -1,-1 -1,-1l0 4c1,0 2,1 3,2 1,0 1,1 1,2 0,2 0,3 -1,4 -1,1 -2,1 -3,1l0 2 -2 0 0 -2c-1,0 -2,0 -3,-1 -1,-1 -1,-2 -1,-3l2 -1c0,1 1,1 1,2 0,0 1,1 1,1zm0 -11c0,0 -1,0 -1,0 0,1 0,1 0,1 0,1 0,1 0,2 0,0 1,0 1,0l0 -3 0 0zm2 11c0,0 1,0 1,-1 0,0 0,-1 0,-1 0,-1 0,-1 0,-1 0,-1 -1,-1 -1,-1l0 4 0 0z"/>
  </g>
 </g>
</svg>
