<?xml version="1.0" encoding="UTF-8"?>
<!DOCTYPE svg PUBLIC "-//W3C//DTD SVG 1.1//EN" "http://www.w3.org/Graphics/SVG/1.1/DTD/svg11.dtd">
<!-- Creator: CorelDRAW X7 -->
<svg xmlns="http://www.w3.org/2000/svg" xml:space="preserve" width="0.567323in" height="0.4in" version="1.1" style="shape-rendering:geometricPrecision; text-rendering:geometricPrecision; image-rendering:optimizeQuality; fill-rule:evenodd; clip-rule:evenodd"
viewBox="0 0 46 33"
 xmlns:xlink="http://www.w3.org/1999/xlink">
 <defs>
  <style type="text/css">
   <![CDATA[
    .fil0 {fill:white}
   ]]>
  </style>
 </defs>
 <g id="Layer_x0020_1">
  <metadata id="CorelCorpID_0Corel-Layer"/>
  <path class="fil0" d="M2 22l0 -20c0,-1 1,-2 2,-2l19 0c1,0 2,1 2,2l0 20c0,0 0,0 -1,0l-22 0c0,0 0,0 0,0l0 0zm15 6c0,3 -1,5 -4,5 -2,0 -4,-2 -4,-5 0,-2 2,-4 4,-4 3,0 4,2 4,4zm-2 0c0,-1 -1,-2 -2,-2 -1,0 -2,1 -2,2 0,2 1,2 2,2 1,0 2,0 2,-2zm-5 -4l-9 0c-1,0 -1,0 -1,1l0 2c0,0 0,1 1,1l7 0c0,-2 1,-3 2,-4zm29 4c0,3 -2,5 -4,5 -2,0 -4,-2 -4,-5 0,-2 2,-4 4,-4 2,0 4,2 4,4zm-2 0c0,-1 -1,-2 -2,-2 -1,0 -2,1 -2,2 0,2 1,2 2,2 1,0 2,0 2,-2zm9 -3l0 2c0,0 0,1 0,1l-6 0c0,-3 -3,-5 -5,-5 -3,0 -5,2 -5,5l-11 0c0,-2 -1,-3 -2,-4l10 0 0 -19c0,0 1,-1 2,-1l6 0c1,0 3,1 4,2l4 6c1,1 1,2 1,3l0 9 2 0c0,0 0,0 0,1l0 0zm-6 -12l-4 -5c0,0 0,0 0,0l-5 0c-1,0 -1,0 -1,0l0 5c0,0 0,1 1,1l8 0c1,0 1,-1 1,-1l0 0z"/>
 </g>
</svg>
