<?xml version="1.0" encoding="UTF-8"?>
<!DOCTYPE svg PUBLIC "-//W3C//DTD SVG 1.1//EN" "http://www.w3.org/Graphics/SVG/1.1/DTD/svg11.dtd">
<!-- Creator: CorelDRAW X7 -->
<svg xmlns="http://www.w3.org/2000/svg" xml:space="preserve" width="0.711496in" height="0.400004in" version="1.1" style="shape-rendering:geometricPrecision; text-rendering:geometricPrecision; image-rendering:optimizeQuality; fill-rule:evenodd; clip-rule:evenodd"
viewBox="0 0 920 517"
 xmlns:xlink="http://www.w3.org/1999/xlink">
 <defs>
  <style type="text/css">
   <![CDATA[
    .fil0 {fill:white}
   ]]>
  </style>
 </defs>
 <g id="Layer_x0020_1">
  <metadata id="CorelCorpID_0Corel-Layer"/>
  <g id="_752347344">
   <g id="_850158016">
    <g>
     <path class="fil0" d="M339 365c-42,0 -76,34 -76,76 0,42 34,76 76,76 43,0 81,-34 81,-76 0,-42 -38,-76 -81,-76zm0 114c-21,0 -38,-17 -38,-38 0,-21 17,-38 38,-38 21,0 38,17 38,38 0,21 -17,38 -38,38zm581 -169l0 80c0,21 -17,38 -38,38l-38 0c-9,-51 -51,-89 -102,-89 -51,0 -93,38 -102,89l-199 0c-8,-51 -51,-89 -102,-89 -51,0 -93,38 -97,89l-51 0c-21,0 -38,-17 -38,-38l0 -80 767 0 0 0 0 0zm-178 55c-42,0 -76,34 -76,76 0,42 34,76 76,76 42,0 76,-34 76,-76 0,-42 -34,-76 -76,-76zm0 114c-21,0 -38,-17 -38,-38 0,-21 17,-38 38,-38 21,0 38,17 38,38 0,21 -17,38 -38,38zm165 -254l-148 -144c-8,-9 -21,-13 -34,-13l-72 0 0 -30c0,-21 -17,-38 -38,-38l-424 0c-21,0 -38,17 -38,38l0 9 -149 17 267 34 -271 25 267 38 -267 26 153 29 0 72 767 0 0 -29c0,-13 -4,-26 -13,-34l0 0zm-63 4l-144 0c0,0 -5,0 -5,-4l0 -111c0,-4 5,-4 5,-4l29 0c0,0 0,0 5,0l114 110c0,5 0,9 -4,9l0 0z"/>
    </g>
   </g>
   <g id="_850137280">
   </g>
   <g id="_850159624">
   </g>
   <g id="_850140352">
   </g>
   <g id="_850140520">
   </g>
   <g id="_850138168">
   </g>
   <g id="_850144048">
   </g>
   <g id="_850139728">
   </g>
   <g id="_850144360">
   </g>
   <g id="_850135096">
   </g>
   <g id="_850140952">
   </g>
   <g id="_850135456">
   </g>
   <g id="_850135816">
   </g>
   <g id="_850155616">
   </g>
   <g id="_850132120">
   </g>
   <g id="_850156672">
   </g>
  </g>
 </g>
</svg>
